<svg xmlns="http://www.w3.org/2000/svg" width="5200" height="2300" viewBox="0 0 5200 2300">
<defs>
  <marker id="arrow-open" viewBox="0 0 12 12" refX="11" refY="6" markerWidth="11" markerHeight="11" orient="auto">
    <path d="M1,1 L11,6 L1,11" fill="white" stroke="#111827" stroke-width="1.8"/>
  </marker>
  <marker id="diamond-filled" viewBox="0 0 16 12" refX="1" refY="6" markerWidth="15" markerHeight="13" orient="auto-start-reverse">
    <path d="M1,6 L8,1 L15,6 L8,11 Z" fill="#111827" stroke="#111827" stroke-width="1.6"/>
  </marker>
  <marker id="diamond-open" viewBox="0 0 16 12" refX="1" refY="6" markerWidth="15" markerHeight="13" orient="auto-start-reverse">
    <path d="M1,6 L8,1 L15,6 L8,11 Z" fill="white" stroke="#111827" stroke-width="1.6"/>
  </marker>
</defs>
<style>
  svg { background: white; }
  .box > rect:first-child { fill: #ffffff; stroke: #111827; stroke-width: 2.3; }
  .header { fill: #dceeff; stroke: #111827; stroke-width: 2.3; }
  .title { font: 700 23px Arial, sans-serif; fill: #111827; }
  .stereotype { font: 700 18px Arial, sans-serif; fill: #374151; }
  .member { font: 700 20px Arial, sans-serif; fill: #111827; }
  .separator { stroke: #111827; stroke-width: 1.6; }
  .edge { fill: none; stroke: #111827; stroke-width: 2.8; stroke-linejoin: round; }
  .dependency { stroke-width: 2.5; stroke-dasharray: 10 8; }
  .tag rect { fill: white; fill-opacity: .97; stroke: #94a3b8; stroke-width: 1; }
  .edge-label, .multiplicity { font: 700 18px Arial, sans-serif; fill: #111827; }
  .multiplicity { font-size: 18px; }
  .section { font: 700 20px Arial, sans-serif; fill: #475569; letter-spacing: 1px; }
  .legend { font: 700 19px Arial, sans-serif; fill: #111827; }
</style>
<rect width="100%" height="100%" fill="white"/>
<text x="2600.0" y="38" class="title" style="font-size:22px">Diagrama de Classes - MedShift</text>
<text x="60" y="325" class="section">AUTENTICAÇÃO E PERFIS</text>
<text x="650" y="345" class="section">ESTRUTURA HOSPITALAR</text>
<text x="1340" y="1570" class="section">ESPECIALIDADES</text>
<text x="2900" y="205" class="section">RECORRÊNCIA</text>
<text x="2900" y="950" class="section">PLANTÕES E COBERTURAS</text>
<g id="edges"><polyline points="580,540 650,544" class="edge composition" /><polygon points="580,540 590,548 600,541 590,534" fill="#111827" stroke="#111827" stroke-width="2"/><polyline points="410,350 400,280 2070,280 2070,300" class="edge composition" /><polygon points="410,350 416,339 407,330 402,341" fill="#111827" stroke="#111827" stroke-width="2"/><polyline points="410,780 400,1450 1850,1450 1850,1100 1920,1028" class="edge composition" /><polygon points="410,780 403,790 410,800 417,790" fill="#111827" stroke="#111827" stroke-width="2"/><polyline points="230,350 190,290 270,290 270,231" class="edge dependency" marker-end="url(#arrow-open)" stroke-dasharray="9 7"/><polyline points="1150,550 1340,553" class="edge composition" /><polygon points="1150,550 1160,557 1170,550 1160,543" fill="#111827" stroke="#111827" stroke-width="2"/><polyline points="1890,548 1820,499 1820,391 1920,397" class="edge association" marker-end="url(#arrow-open)"/><polyline points="1830,1052 1830,1008 1830,1034 1920,1064" class="edge association" marker-end="url(#arrow-open)"/><polyline points="1515,950 1545,726" class="edge association" marker-end="url(#arrow-open)"/><polyline points="2060,544 2060,900 1665,900 1705,950" class="edge association" marker-end="url(#arrow-open)"/><polyline points="2090,1267 2090,1500 1800,1500 1800,1693 1800,1702" class="edge association" marker-end="url(#arrow-open)"/><polyline points="1890,628 1800,650 1800,850 2800,850 2800,1077 2900,1134" class="edge composition" /><polygon points="1890,628 1879,624 1871,633 1882,637" fill="#111827" stroke="#111827" stroke-width="2"/><polyline points="2900,1170 2760,1112 2760,800 2540,800 2540,520 2460,447" class="edge association" marker-end="url(#arrow-open)"/><polyline points="2900,1220 2700,1162 2700,1074 2460,1088" class="edge association" marker-end="url(#arrow-open)"/><polyline points="2900,1270 2740,1212 2740,1109 2460,1124" class="edge association" marker-end="url(#arrow-open)"/><polyline points="3150,691 3180,980" class="edge aggregation" /><polygon points="3150,691 3144,702 3152,711 3158,700" fill="white" stroke="#111827" stroke-width="2"/><polyline points="2900,396 2780,344 2780,150 990,150 990,340 990,370" class="edge association" marker-end="url(#arrow-open)"/><polyline points="2900,436 2820,384 2820,240 1800,240 1800,350 1565,350 1645,420" class="edge association" marker-end="url(#arrow-open)"/><polyline points="2900,486 2760,434 2760,371 2460,377" class="edge association" marker-end="url(#arrow-open)"/><polyline points="2900,526 2840,474 2840,900 2520,900 2520,1030 2460,1044" class="edge association" marker-end="url(#arrow-open)"/><polyline points="3150,230 3160,165" class="edge dependency" marker-end="url(#arrow-open)" stroke-dasharray="9 7"/><polyline points="3070,1379 2925,1530" class="edge dependency" marker-end="url(#arrow-open)" stroke-dasharray="9 7"/><polyline points="3180,1379 3190,1530" class="edge dependency" marker-end="url(#arrow-open)" stroke-dasharray="9 7"/><polyline points="3290,1379 3460,1530" class="edge dependency" marker-end="url(#arrow-open)" stroke-dasharray="9 7"/><polyline points="3460,1170 3720,1154" class="edge composition" /><polygon points="3460,1170 3470,1176 3480,1168 3470,1162" fill="#111827" stroke="#111827" stroke-width="2"/><polyline points="3720,1234 3660,1230 3600,1230 3600,1400 2580,1400 2580,1200 2460,1164" class="edge association" marker-end="url(#arrow-open)"/><polyline points="3720,1269 3680,1270 3640,1270 3640,1470 2640,1470 2640,1240 2460,1198" class="edge association" marker-end="url(#arrow-open)"/><polyline points="3885,1348 3885,1430 4300,1430 4300,1850 830,1850 830,769" class="edge association" marker-end="url(#arrow-open)"/><polyline points="4025,1348 4025,1460 4340,1460 4340,1910 1250,1910 1250,700 1615,700 1695,726" class="edge association" marker-end="url(#arrow-open)"/><polyline points="3965,1348 3985,1530" class="edge dependency" marker-end="url(#arrow-open)" stroke-dasharray="9 7"/><polyline points="4210,1149 4540,1164" class="edge association" marker-end="url(#arrow-open)"/><polyline points="4540,1224 4480,1200 4420,1200 4420,860 3450,860 3450,1200 3460,1224" class="edge association" marker-end="url(#arrow-open)"/><polyline points="4880,1347 4850,1470 5100,1470 5100,2000 190,2000 230,780" class="edge association" marker-end="url(#arrow-open)"/><polyline points="4780,1347 4775,1530" class="edge dependency" marker-end="url(#arrow-open)" stroke-dasharray="9 7"/></g>
<g id="classes"><g class="box"><rect x="60" y="350" width="520" height="430" rx="2"/><rect class="header" x="60" y="350" width="520" height="36" rx="2"/><text x="320.0" y="374" class="title" text-anchor="middle">Usuario</text><text x="68" y="413" class="member" text-anchor="start">- id: Long</text><text x="68" y="444" class="member" text-anchor="start">- nome: String</text><text x="68" y="475" class="member" text-anchor="start">- email: String</text><text x="68" y="506" class="member" text-anchor="start">- senhaHash: String</text><text x="68" y="537" class="member" text-anchor="start">- cpf: String</text><text x="68" y="568" class="member" text-anchor="start">- dataNascimento: Date</text><text x="68" y="599" class="member" text-anchor="start">- telefone: String</text><text x="68" y="630" class="member" text-anchor="start">- role: UserRole</text><text x="68" y="661" class="member" text-anchor="start">- ativo: Boolean</text><line x1="60" y1="681" x2="580" y2="681" class="separator"/><text x="68" y="709" class="member" text-anchor="start">+ autenticar(email, senha): Boolean</text><text x="68" y="740" class="member" text-anchor="start">+ trocarSenha(senhaAtual, novaSenha): void</text><text x="68" y="771" class="member" text-anchor="start">+ alterarDadosPessoais(dados): void</text></g><g class="box"><rect x="150" y="90" width="240" height="141" rx="2"/><rect class="header" x="150" y="90" width="240" height="48" rx="2"/><text x="270.0" y="108" class="stereotype" text-anchor="middle">«enumeration»</text><text x="270.0" y="129" class="title" text-anchor="middle">UserRole</text><text x="158" y="165" class="member" text-anchor="start">HOSPITAL</text><text x="158" y="196" class="member" text-anchor="start">ESCALISTA</text><text x="158" y="227" class="member" text-anchor="start">MEDICO</text></g><g class="box"><rect x="650" y="370" width="500" height="399" rx="2"/><rect class="header" x="650" y="370" width="500" height="36" rx="2"/><text x="900.0" y="394" class="title" text-anchor="middle">Hospital</text><text x="658" y="433" class="member" text-anchor="start">- id: Long</text><text x="658" y="464" class="member" text-anchor="start">- nomeFantasia: String</text><text x="658" y="495" class="member" text-anchor="start">- razaoSocial: String</text><text x="658" y="526" class="member" text-anchor="start">- cnpj: String</text><text x="658" y="557" class="member" text-anchor="start">- telefone: String</text><text x="658" y="588" class="member" text-anchor="start">- endereco: String</text><text x="658" y="619" class="member" text-anchor="start">- nomeGestor: String</text><text x="658" y="650" class="member" text-anchor="start">- ativo: Boolean</text><line x1="650" y1="670" x2="1150" y2="670" class="separator"/><text x="658" y="698" class="member" text-anchor="start">+ cadastrar(dados): Hospital</text><text x="658" y="729" class="member" text-anchor="start">+ alterarDados(dados): void</text><text x="658" y="760" class="member" text-anchor="start">+ desativar(): void</text></g><g class="box"><rect x="1340" y="420" width="550" height="306" rx="2"/><rect class="header" x="1340" y="420" width="550" height="36" rx="2"/><text x="1615.0" y="444" class="title" text-anchor="middle">Setor</text><text x="1348" y="483" class="member" text-anchor="start">- id: Long</text><text x="1348" y="514" class="member" text-anchor="start">- nome: String</text><text x="1348" y="545" class="member" text-anchor="start">- descricao: String</text><text x="1348" y="576" class="member" text-anchor="start">- ativo: Boolean</text><line x1="1340" y1="596" x2="1890" y2="596" class="separator"/><text x="1348" y="624" class="member" text-anchor="start">+ cadastrar(dados): Setor</text><text x="1348" y="655" class="member" text-anchor="start">+ listarMedicos(): List</text><text x="1348" y="686" class="member" text-anchor="start">+ definirEscalistaResponsavel(escalista): void</text><text x="1348" y="717" class="member" text-anchor="start">+ desativar(): void</text></g><g class="box"><rect x="1920" y="300" width="540" height="244" rx="2"/><rect class="header" x="1920" y="300" width="540" height="36" rx="2"/><text x="2190.0" y="324" class="title" text-anchor="middle">Escalista</text><text x="1928" y="363" class="member" text-anchor="start">- id: Long</text><text x="1928" y="394" class="member" text-anchor="start">- cargo: String</text><text x="1928" y="425" class="member" text-anchor="start">- ativo: Boolean</text><line x1="1920" y1="445" x2="2460" y2="445" class="separator"/><text x="1928" y="473" class="member" text-anchor="start">+ cadastrar(dados): Escalista</text><text x="1928" y="504" class="member" text-anchor="start">+ alterarDados(dados): void</text><text x="1928" y="535" class="member" text-anchor="start">+ desativar(): void</text></g><g class="box"><rect x="1920" y="930" width="540" height="337" rx="2"/><rect class="header" x="1920" y="930" width="540" height="36" rx="2"/><text x="2190.0" y="954" class="title" text-anchor="middle">Medico</text><text x="1928" y="993" class="member" text-anchor="start">- id: Long</text><text x="1928" y="1024" class="member" text-anchor="start">- crm: String</text><text x="1928" y="1055" class="member" text-anchor="start">- ufCrm: String</text><text x="1928" y="1086" class="member" text-anchor="start">- telefone: String</text><text x="1928" y="1117" class="member" text-anchor="start">- fotoPerfilUrl: String</text><text x="1928" y="1148" class="member" text-anchor="start">- ativo: Boolean</text><line x1="1920" y1="1168" x2="2460" y2="1168" class="separator"/><text x="1928" y="1196" class="member" text-anchor="start">+ cadastrar(dados): Medico</text><text x="1928" y="1227" class="member" text-anchor="start">+ alterarDados(dados): void</text><text x="1928" y="1258" class="member" text-anchor="start">+ desativar(): void</text></g><g class="box"><rect x="1340" y="950" width="490" height="275" rx="2"/><rect class="header" x="1340" y="950" width="490" height="36" rx="2"/><text x="1585.0" y="974" class="title" text-anchor="middle">MedicoSetor</text><text x="1348" y="1013" class="member" text-anchor="start">- id: Long</text><text x="1348" y="1044" class="member" text-anchor="start">- ativo: Boolean</text><text x="1348" y="1075" class="member" text-anchor="start">- vinculadoEm: LocalDateTime</text><text x="1348" y="1106" class="member" text-anchor="start">- desvinculadoEm: LocalDateTime</text><line x1="1340" y1="1126" x2="1830" y2="1126" class="separator"/><text x="1348" y="1154" class="member" text-anchor="start">+ vincular(medico, setor): MedicoSetor</text><text x="1348" y="1185" class="member" text-anchor="start">+ ativarVinculo(): void</text><text x="1348" y="1216" class="member" text-anchor="start">+ encerrarVinculo(): void</text></g><g class="box"><rect x="1340" y="1600" width="460" height="244" rx="2"/><rect class="header" x="1340" y="1600" width="460" height="36" rx="2"/><text x="1570.0" y="1624" class="title" text-anchor="middle">Especialidade</text><text x="1348" y="1663" class="member" text-anchor="start">- id: Long</text><text x="1348" y="1694" class="member" text-anchor="start">- nome: String</text><text x="1348" y="1725" class="member" text-anchor="start">- descricao: String</text><text x="1348" y="1756" class="member" text-anchor="start">- ativo: Boolean</text><line x1="1340" y1="1776" x2="1800" y2="1776" class="separator"/><text x="1348" y="1804" class="member" text-anchor="start">+ alterarDescricao(descricao): void</text><text x="1348" y="1835" class="member" text-anchor="start">+ desativar(): void</text></g><g class="box"><rect x="2900" y="230" width="500" height="461" rx="2"/><rect class="header" x="2900" y="230" width="500" height="36" rx="2"/><text x="3150.0" y="254" class="title" text-anchor="middle">RegraPlantaoFixo</text><text x="2908" y="293" class="member" text-anchor="start">- id: Long</text><text x="2908" y="324" class="member" text-anchor="start">- tipoRecorrencia: TipoRecorrenciaPlantao</text><text x="2908" y="355" class="member" text-anchor="start">- diaSemana: String</text><text x="2908" y="386" class="member" text-anchor="start">- semanaDoMes: Integer</text><text x="2908" y="417" class="member" text-anchor="start">- diaDoMes: Integer</text><text x="2908" y="448" class="member" text-anchor="start">- horaInicio: LocalTime</text><text x="2908" y="479" class="member" text-anchor="start">- horaFim: LocalTime</text><text x="2908" y="510" class="member" text-anchor="start">- dataInicioVigencia: LocalDate</text><text x="2908" y="541" class="member" text-anchor="start">- dataFimVigencia: LocalDate</text><text x="2908" y="572" class="member" text-anchor="start">- ativo: Boolean</text><line x1="2900" y1="592" x2="3400" y2="592" class="separator"/><text x="2908" y="620" class="member" text-anchor="start">+ criar(dados): RegraPlantaoFixo</text><text x="2908" y="651" class="member" text-anchor="start">+ gerarPlantoes(): List</text><text x="2908" y="682" class="member" text-anchor="start">+ desativar(): void</text></g><g class="box"><rect x="2950" y="55" width="420" height="110" rx="2"/><rect class="header" x="2950" y="55" width="420" height="48" rx="2"/><text x="3160.0" y="73" class="stereotype" text-anchor="middle">«enumeration»</text><text x="3160.0" y="94" class="title" text-anchor="middle">TipoRecorrenciaPlantao</text><text x="2958" y="130" class="member" text-anchor="start">SEMANAL</text><text x="2958" y="161" class="member" text-anchor="start">MENSAL</text></g><g class="box"><rect x="2900" y="980" width="560" height="399" rx="2"/><rect class="header" x="2900" y="980" width="560" height="36" rx="2"/><text x="3180.0" y="1004" class="title" text-anchor="middle">Plantao</text><text x="2908" y="1043" class="member" text-anchor="start">- id: Long</text><text x="2908" y="1074" class="member" text-anchor="start">- tipo: PlantaoTipo</text><text x="2908" y="1105" class="member" text-anchor="start">- turno: PlantaoTurno</text><text x="2908" y="1136" class="member" text-anchor="start">- dataInicio: LocalDateTime</text><text x="2908" y="1167" class="member" text-anchor="start">- dataFim: LocalDateTime</text><text x="2908" y="1198" class="member" text-anchor="start">- status: PlantaoStatus</text><line x1="2900" y1="1218" x2="3460" y2="1218" class="separator"/><text x="2908" y="1246" class="member" text-anchor="start">+ criarAvulso(dados): Plantao</text><text x="2908" y="1277" class="member" text-anchor="start">+ consultarEscala(periodo): List</text><text x="2908" y="1308" class="member" text-anchor="start">+ atribuirMedico(medico): void</text><text x="2908" y="1339" class="member" text-anchor="start">+ verificarConflito(): Boolean</text><text x="2908" y="1370" class="member" text-anchor="start">+ alterarResponsavel(medico): void</text></g><g class="box"><rect x="2820" y="1530" width="210" height="110" rx="2"/><rect class="header" x="2820" y="1530" width="210" height="48" rx="2"/><text x="2925.0" y="1548" class="stereotype" text-anchor="middle">«enumeration»</text><text x="2925.0" y="1569" class="title" text-anchor="middle">PlantaoTipo</text><text x="2828" y="1605" class="member" text-anchor="start">AVULSO</text><text x="2828" y="1636" class="member" text-anchor="start">FIXO</text></g><g class="box"><rect x="3070" y="1530" width="240" height="141" rx="2"/><rect class="header" x="3070" y="1530" width="240" height="48" rx="2"/><text x="3190.0" y="1548" class="stereotype" text-anchor="middle">«enumeration»</text><text x="3190.0" y="1569" class="title" text-anchor="middle">PlantaoTurno</text><text x="3078" y="1605" class="member" text-anchor="start">DIURNO</text><text x="3078" y="1636" class="member" text-anchor="start">NOTURNO</text><text x="3078" y="1667" class="member" text-anchor="start">PERSONALIZADO</text></g><g class="box"><rect x="3350" y="1530" width="220" height="141" rx="2"/><rect class="header" x="3350" y="1530" width="220" height="48" rx="2"/><text x="3460.0" y="1548" class="stereotype" text-anchor="middle">«enumeration»</text><text x="3460.0" y="1569" class="title" text-anchor="middle">PlantaoStatus</text><text x="3358" y="1605" class="member" text-anchor="start">AGENDADO</text><text x="3358" y="1636" class="member" text-anchor="start">CANCELADO</text><text x="3358" y="1667" class="member" text-anchor="start">REALIZADO</text></g><g class="box"><rect x="3720" y="980" width="490" height="368" rx="2"/><rect class="header" x="3720" y="980" width="490" height="36" rx="2"/><text x="3965.0" y="1004" class="title" text-anchor="middle">PedidoCobertura</text><text x="3728" y="1043" class="member" text-anchor="start">- id: Long</text><text x="3728" y="1074" class="member" text-anchor="start">- status: PedidoCoberturaStatus</text><text x="3728" y="1105" class="member" text-anchor="start">- abertoEm: LocalDateTime</text><text x="3728" y="1136" class="member" text-anchor="start">- assumidoEm: LocalDateTime</text><text x="3728" y="1167" class="member" text-anchor="start">- canceladoEm: LocalDateTime</text><text x="3728" y="1198" class="member" text-anchor="start">- expiradoEm: LocalDateTime</text><line x1="3720" y1="1218" x2="4210" y2="1218" class="separator"/><text x="3728" y="1246" class="member" text-anchor="start">+ abrir(): void</text><text x="3728" y="1277" class="member" text-anchor="start">+ assumir(medicoCobridor): void</text><text x="3728" y="1308" class="member" text-anchor="start">+ cancelar(): void</text><text x="3728" y="1339" class="member" text-anchor="start">+ estaAberto(): Boolean</text></g><g class="box"><rect x="3820" y="1530" width="330" height="172" rx="2"/><rect class="header" x="3820" y="1530" width="330" height="48" rx="2"/><text x="3985.0" y="1548" class="stereotype" text-anchor="middle">«enumeration»</text><text x="3985.0" y="1569" class="title" text-anchor="middle">PedidoCoberturaStatus</text><text x="3828" y="1605" class="member" text-anchor="start">ABERTO</text><text x="3828" y="1636" class="member" text-anchor="start">ASSUMIDO</text><text x="3828" y="1667" class="member" text-anchor="start">CANCELADO</text><text x="3828" y="1698" class="member" text-anchor="start">EXPIRADO</text></g><g class="box"><rect x="4540" y="1010" width="480" height="337" rx="2"/><rect class="header" x="4540" y="1010" width="480" height="36" rx="2"/><text x="4780.0" y="1034" class="title" text-anchor="middle">Notificacao</text><text x="4548" y="1073" class="member" text-anchor="start">- id: Long</text><text x="4548" y="1104" class="member" text-anchor="start">- tipo: NotificacaoTipo</text><text x="4548" y="1135" class="member" text-anchor="start">- titulo: String</text><text x="4548" y="1166" class="member" text-anchor="start">- mensagem: String</text><text x="4548" y="1197" class="member" text-anchor="start">- lidaEm: LocalDateTime</text><text x="4548" y="1228" class="member" text-anchor="start">- criadoEm: LocalDateTime</text><line x1="4540" y1="1248" x2="5020" y2="1248" class="separator"/><text x="4548" y="1276" class="member" text-anchor="start">+ criar(dados): Notificacao</text><text x="4548" y="1307" class="member" text-anchor="start">+ consultarPorDestinatario(): List</text><text x="4548" y="1338" class="member" text-anchor="start">+ marcarComoLida(): void</text></g><g class="box"><rect x="4580" y="1530" width="390" height="141" rx="2"/><rect class="header" x="4580" y="1530" width="390" height="48" rx="2"/><text x="4775.0" y="1548" class="stereotype" text-anchor="middle">«enumeration»</text><text x="4775.0" y="1569" class="title" text-anchor="middle">NotificacaoTipo</text><text x="4588" y="1605" class="member" text-anchor="start">COBERTURA_ASSUMIDA</text><text x="4588" y="1636" class="member" text-anchor="start">PLANTAO_ATRIBUIDO</text><text x="4588" y="1667" class="member" text-anchor="start">PLANTAO_CANCELADO</text></g></g>
<g id="annotations"><g class="tag"><rect x="531" y="513" width="168" height="30" rx="4"/><text x="615.0" y="533.25" class="edge-label" text-anchor="middle">perfil de acesso</text></g><g class="tag"><rect x="504" y="526" width="42" height="30" rx="4"/><text x="525" y="546" class="multiplicity" text-anchor="middle">1</text></g><g class="tag"><rect x="595" y="526" width="60" height="30" rx="4"/><text x="625" y="546" class="multiplicity" text-anchor="middle">0..1</text></g><g class="tag"><rect x="1036" y="251" width="168" height="30" rx="4"/><text x="1120" y="271" class="edge-label" text-anchor="middle">perfil de acesso</text></g><g class="tag"><rect x="399" y="271" width="42" height="30" rx="4"/><text x="420" y="291" class="multiplicity" text-anchor="middle">1</text></g><g class="tag"><rect x="2060" y="266" width="60" height="30" rx="4"/><text x="2090" y="286" class="multiplicity" text-anchor="middle">0..1</text></g><g class="tag"><rect x="1036" y="1421" width="168" height="30" rx="4"/><text x="1120" y="1441" class="edge-label" text-anchor="middle">perfil de acesso</text></g><g class="tag"><rect x="399" y="691" width="42" height="30" rx="4"/><text x="420" y="711" class="multiplicity" text-anchor="middle">1</text></g><g class="tag"><rect x="1840" y="1071" width="60" height="30" rx="4"/><text x="1870" y="1091" class="multiplicity" text-anchor="middle">0..1</text></g><g class="tag"><rect x="186" y="261" width="87" height="30" rx="4"/><text x="230.0" y="281.0" class="edge-label" text-anchor="middle">utiliza</text></g><g class="tag"><rect x="1206" y="522" width="78" height="30" rx="4"/><text x="1245.0" y="542.25" class="edge-label" text-anchor="middle">possui</text></g><g class="tag"><rect x="1161" y="517" width="42" height="30" rx="4"/><text x="1182.2524230101055" y="537.0917484369802" class="multiplicity" text-anchor="middle">1</text></g><g class="tag"><rect x="1282" y="519" width="60" height="30" rx="4"/><text x="1312.2626004754013" y="539.4866727587093" class="multiplicity" text-anchor="middle">1..*</text></g><g class="tag"><rect x="1728" y="436" width="123" height="30" rx="4"/><text x="1790" y="456" class="edge-label" text-anchor="middle">responsável</text></g><g class="tag"><rect x="1749" y="481" width="42" height="30" rx="4"/><text x="1770" y="501" class="multiplicity" text-anchor="middle">1</text></g><g class="tag"><rect x="1850" y="371" width="60" height="30" rx="4"/><text x="1880" y="391" class="multiplicity" text-anchor="middle">0..1</text></g><g class="tag"><rect x="1751" y="1001" width="78" height="30" rx="4"/><text x="1790" y="1021" class="edge-label" text-anchor="middle">médico</text></g><g class="tag"><rect x="1750" y="971" width="60" height="30" rx="4"/><text x="1780" y="991" class="multiplicity" text-anchor="middle">0..*</text></g><g class="tag"><rect x="1869" y="1021" width="42" height="30" rx="4"/><text x="1890" y="1041" class="multiplicity" text-anchor="middle">1</text></g><g class="tag"><rect x="1496" y="809" width="69" height="30" rx="4"/><text x="1530.0" y="829.0" class="edge-label" text-anchor="middle">setor</text></g><g class="tag"><rect x="1475" y="897" width="60" height="30" rx="4"/><text x="1505.3716814159293" y="917.4247787610619" class="multiplicity" text-anchor="middle">0..*</text></g><g class="tag"><rect x="1506" y="733" width="42" height="30" rx="4"/><text x="1527.4070796460178" y="752.8938053097345" class="multiplicity" text-anchor="middle">1</text></g><g class="tag"><rect x="1806" y="871" width="87" height="30" rx="4"/><text x="1850" y="891" class="edge-label" text-anchor="middle">vincula</text></g><g class="tag"><rect x="2059" y="621" width="42" height="30" rx="4"/><text x="2080" y="641" class="multiplicity" text-anchor="middle">1</text></g><g class="tag"><rect x="1655" y="911" width="60" height="30" rx="4"/><text x="1685" y="931" class="multiplicity" text-anchor="middle">0..*</text></g><g class="tag"><rect x="1870" y="1471" width="141" height="30" rx="4"/><text x="1940" y="1491" class="edge-label" text-anchor="middle">especialidade</text></g><g class="tag"><rect x="2080" y="1261" width="60" height="30" rx="4"/><text x="2110" y="1281" class="multiplicity" text-anchor="middle">0..*</text></g><g class="tag"><rect x="1749" y="1661" width="42" height="30" rx="4"/><text x="1770" y="1681" class="multiplicity" text-anchor="middle">1</text></g><g class="tag"><rect x="2211" y="821" width="78" height="30" rx="4"/><text x="2250" y="841" class="edge-label" text-anchor="middle">possui</text></g><g class="tag"><rect x="1739" y="661" width="42" height="30" rx="4"/><text x="1760" y="681" class="multiplicity" text-anchor="middle">1</text></g><g class="tag"><rect x="2790" y="1051" width="60" height="30" rx="4"/><text x="2820" y="1071" class="multiplicity" text-anchor="middle">0..*</text></g><g class="tag"><rect x="2613" y="771" width="114" height="30" rx="4"/><text x="2670" y="791" class="edge-label" text-anchor="middle">criado por</text></g><g class="tag"><rect x="2790" y="1091" width="60" height="30" rx="4"/><text x="2820" y="1111" class="multiplicity" text-anchor="middle">0..*</text></g><g class="tag"><rect x="2489" y="501" width="42" height="30" rx="4"/><text x="2510" y="521" class="multiplicity" text-anchor="middle">1</text></g><g class="tag"><rect x="2616" y="1091" width="87" height="30" rx="4"/><text x="2660" y="1111" class="edge-label" text-anchor="middle">titular</text></g><g class="tag"><rect x="2790" y="1141" width="60" height="30" rx="4"/><text x="2820" y="1161" class="multiplicity" text-anchor="middle">0..*</text></g><g class="tag"><rect x="2479" y="1051" width="42" height="30" rx="4"/><text x="2500" y="1071" class="multiplicity" text-anchor="middle">1</text></g><g class="tag"><rect x="2582" y="1181" width="177" height="30" rx="4"/><text x="2670" y="1201" class="edge-label" text-anchor="middle">responsável atual</text></g><g class="tag"><rect x="2790" y="1191" width="60" height="30" rx="4"/><text x="2820" y="1211" class="multiplicity" text-anchor="middle">0..*</text></g><g class="tag"><rect x="2479" y="1091" width="42" height="30" rx="4"/><text x="2500" y="1111" class="multiplicity" text-anchor="middle">1</text></g><g class="tag"><rect x="3135" y="806" width="60" height="30" rx="4"/><text x="3165.0" y="826.5" class="edge-label" text-anchor="middle">gera</text></g><g class="tag"><rect x="3137" y="702" width="60" height="30" rx="4"/><text x="3167.229219310046" y="722.3834494744481" class="multiplicity" text-anchor="middle">0..1</text></g><g class="tag"><rect x="3161" y="932" width="60" height="30" rx="4"/><text x="3191.0341344602493" y="951.7041320880719" class="multiplicity" text-anchor="middle">0..*</text></g><g class="tag"><rect x="1282" y="101" width="96" height="30" rx="4"/><text x="1330" y="121" class="edge-label" text-anchor="middle">hospital</text></g><g class="tag"><rect x="2820" y="311" width="60" height="30" rx="4"/><text x="2850" y="331" class="multiplicity" text-anchor="middle">0..*</text></g><g class="tag"><rect x="983" y="323" width="42" height="30" rx="4"/><text x="1004.0" y="343.0" class="multiplicity" text-anchor="middle">1</text></g><g class="tag"><rect x="2266" y="211" width="69" height="30" rx="4"/><text x="2300" y="231" class="edge-label" text-anchor="middle">setor</text></g><g class="tag"><rect x="2780" y="351" width="60" height="30" rx="4"/><text x="2810" y="371" class="multiplicity" text-anchor="middle">0..*</text></g><g class="tag"><rect x="1549" y="311" width="42" height="30" rx="4"/><text x="1570" y="331" class="multiplicity" text-anchor="middle">1</text></g><g class="tag"><rect x="2624" y="371" width="132" height="30" rx="4"/><text x="2690" y="391" class="edge-label" text-anchor="middle">definida por</text></g><g class="tag"><rect x="2740" y="401" width="60" height="30" rx="4"/><text x="2770" y="421" class="multiplicity" text-anchor="middle">0..*</text></g><g class="tag"><rect x="2479" y="352" width="42" height="30" rx="4"/><text x="2500" y="372" class="multiplicity" text-anchor="middle">1</text></g><g class="tag"><rect x="2636" y="871" width="87" height="30" rx="4"/><text x="2680.0" y="891.0" class="edge-label" text-anchor="middle">titular</text></g><g class="tag"><rect x="2700" y="451" width="60" height="30" rx="4"/><text x="2730" y="471" class="multiplicity" text-anchor="middle">0..*</text></g><g class="tag"><rect x="2469" y="1032" width="42" height="30" rx="4"/><text x="2490.390243902439" y="1052.0121951219512" class="multiplicity" text-anchor="middle">1</text></g><g class="tag"><rect x="3112" y="168" width="87" height="30" rx="4"/><text x="3155.0" y="188.5" class="edge-label" text-anchor="middle">utiliza</text></g><g class="tag"><rect x="2954" y="1426" width="87" height="30" rx="4"/><text x="2997.5" y="1445.5" class="edge-label" text-anchor="middle">utiliza</text></g><g class="tag"><rect x="3142" y="1426" width="87" height="30" rx="4"/><text x="3185.0" y="1445.5" class="edge-label" text-anchor="middle">utiliza</text></g><g class="tag"><rect x="3332" y="1426" width="87" height="30" rx="4"/><text x="3375.0" y="1445.5" class="edge-label" text-anchor="middle">utiliza</text></g><g class="tag"><rect x="3546" y="1133" width="87" height="30" rx="4"/><text x="3590.0" y="1152.75" class="edge-label" text-anchor="middle">origina</text></g><g class="tag"><rect x="3470" y="1135" width="42" height="30" rx="4"/><text x="3491.110151000558" y="1154.6205004889168" class="multiplicity" text-anchor="middle">1</text></g><g class="tag"><rect x="3661" y="1123" width="60" height="30" rx="4"/><text x="3691.2164874674586" y="1142.6910842764669" class="multiplicity" text-anchor="middle">0..*</text></g><g class="tag"><rect x="3398" y="1371" width="123" height="30" rx="4"/><text x="3460" y="1391" class="edge-label" text-anchor="middle">solicitante</text></g><g class="tag"><rect x="3650" y="1211" width="60" height="30" rx="4"/><text x="3680" y="1231" class="multiplicity" text-anchor="middle">0..*</text></g><g class="tag"><rect x="2509" y="1181" width="42" height="30" rx="4"/><text x="2530" y="1201" class="multiplicity" text-anchor="middle">1</text></g><g class="tag"><rect x="3412" y="1441" width="96" height="30" rx="4"/><text x="3460" y="1461" class="edge-label" text-anchor="middle">cobridor</text></g><g class="tag"><rect x="3670" y="1251" width="60" height="30" rx="4"/><text x="3700" y="1271" class="multiplicity" text-anchor="middle">0..*</text></g><g class="tag"><rect x="2500" y="1221" width="60" height="30" rx="4"/><text x="2530" y="1241" class="multiplicity" text-anchor="middle">0..1</text></g><g class="tag"><rect x="2202" y="1821" width="96" height="30" rx="4"/><text x="2250" y="1841" class="edge-label" text-anchor="middle">hospital</text></g><g class="tag"><rect x="3869" y="1361" width="60" height="30" rx="4"/><text x="3899.0" y="1381.0" class="multiplicity" text-anchor="middle">0..*</text></g><g class="tag"><rect x="795" y="778" width="42" height="30" rx="4"/><text x="816.0" y="798.0" class="multiplicity" text-anchor="middle">1</text></g><g class="tag"><rect x="2766" y="1881" width="69" height="30" rx="4"/><text x="2800" y="1901" class="edge-label" text-anchor="middle">setor</text></g><g class="tag"><rect x="4009" y="1361" width="60" height="30" rx="4"/><text x="4039.0" y="1381.0" class="multiplicity" text-anchor="middle">0..*</text></g><g class="tag"><rect x="1652" y="685" width="42" height="30" rx="4"/><text x="1672.6982510882594" y="705.0311130123151" class="multiplicity" text-anchor="middle">1</text></g><g class="tag"><rect x="3932" y="1410" width="87" height="30" rx="4"/><text x="3975.0" y="1430.0" class="edge-label" text-anchor="middle">utiliza</text></g><g class="tag"><rect x="4332" y="1127" width="87" height="30" rx="4"/><text x="4375.0" y="1147.25" class="edge-label" text-anchor="middle">dispara</text></g><g class="tag"><rect x="4222" y="1117" width="42" height="30" rx="4"/><text x="4242.583712478817" y="1137.4182004030508" class="multiplicity" text-anchor="middle">1</text></g><g class="tag"><rect x="4483" y="1129" width="60" height="30" rx="4"/><text x="4512.641548855238" y="1149.2843780620149" class="multiplicity" text-anchor="middle">0..*</text></g><g class="tag"><rect x="3873" y="831" width="114" height="30" rx="4"/><text x="3930" y="851" class="edge-label" text-anchor="middle">referencia</text></g><g class="tag"><rect x="4475" y="1206" width="60" height="30" rx="4"/><text x="4505.098209400445" y="1225.8656547677906" class="multiplicity" text-anchor="middle">0..*</text></g><g class="tag"><rect x="3441" y="1174" width="42" height="30" rx="4"/><text x="3462.380751083788" y="1194.2857080125618" class="multiplicity" text-anchor="middle">1</text></g><g class="tag"><rect x="2434" y="1971" width="132" height="30" rx="4"/><text x="2500" y="1991" class="edge-label" text-anchor="middle">destinatário</text></g><g class="tag"><rect x="4856" y="1362" width="60" height="30" rx="4"/><text x="4886.018686976851" y="1382.4060373637342" class="multiplicity" text-anchor="middle">0..*</text></g><g class="tag"><rect x="194" y="789" width="42" height="30" rx="4"/><text x="215.08997904655348" y="808.5261925294398" class="multiplicity" text-anchor="middle">1</text></g><g class="tag"><rect x="4734" y="1410" width="87" height="30" rx="4"/><text x="4777.5" y="1429.5" class="edge-label" text-anchor="middle">utiliza</text></g></g>
<g id="legend">
  <rect x="4320" y="2015" width="820" height="265" fill="white" stroke="#111827" stroke-width="2"/>
  <text x="4355" y="2055" class="title">Legenda UML</text>
  <line x1="4360" y1="2100" x2="4490" y2="2100" class="edge" marker-start="url(#diamond-filled)"/>
  <text x="4530" y="2105" class="legend">Composição: dependência forte de ciclo de vida</text>
  <line x1="4360" y1="2145" x2="4490" y2="2145" class="edge" marker-start="url(#diamond-open)"/>
  <text x="4530" y="2150" class="legend">Agregação: relação todo-parte</text>
  <line x1="4360" y1="2190" x2="4490" y2="2190" class="edge" marker-end="url(#arrow-open)"/>
  <text x="4530" y="2195" class="legend">Associação navegável</text>
  <line x1="4360" y1="2235" x2="4490" y2="2235" class="edge dependency" marker-end="url(#arrow-open)"/>
  <text x="4530" y="2240" class="legend">Dependência de enumeração</text>
</g>
</svg>